{
  "accessors": [
    {
      "bufferView": 2,
      "componentType": 5126,
      "count": 340,
      "max": [
        -557.12371826171875,
        16.068399429321289,
        112.55059814453125
      ],
      "min": [
        -597.002197265625,
        -11.861300468444824,
        84.683403015136719
      ],
      "type": "VEC3"
    },
    {
      "bufferView": 2,
      "byteOffset": 4080,
      "componentType": 5126,
      "count": 340,
      "max": [
        0.98192280530929565,
        0.98532277345657349,
        0.99955886602401733
      ],
      "min": [
        -0.98250329494476318,
        -0.99839699268341064,
        -0.99996113777160645
      ],
      "type": "VEC3"
    },
    {
      "bufferView": 1,
      "componentType": 5126,
      "count": 340,
      "max": [
        0.98589998483657837,
        0.9868999719619751
      ],
      "min": [
        0.010400000028312206,
        0.010400000028312206
      ],
      "type": "VEC2"
    },
    {
      "bufferView": 0,
      "componentType": 5125,
      "count": 1680,
      "max": [
        339
      ],
      "min": [
        0
      ],
      "type": "SCALAR"
    },
    {
      "bufferView": 2,
      "byteOffset": 8160,
      "componentType": 5126,
      "count": 414,
      "max": [
        -497.48989868164062,
        15.605799674987793,
        175.35899353027344
      ],
      "min": [
        -656.6121826171875,
        -10.11400032043457,
        86.628700256347656
      ],
      "type": "VEC3"
    },
    {
      "bufferView": 2,
      "byteOffset": 13128,
      "componentType": 5126,
      "count": 414,
      "max": [
        0.99933040142059326,
        0.98139840364456177,
        0.99836939573287964
      ],
      "min": [
        -0.99949139356613159,
        -0.99528694152832031,
        -0.9863702654838562
      ],
      "type": "VEC3"
    },
    {
      "bufferView": 3,
      "componentType": 5126,
      "count": 414,
      "max": [
        0.99561589956283569,
        0.99820709228515625,
        0.99427133798599243,
        1
      ],
      "min": [
        -1,
        -0.99762576818466187,
        -0.99822878837585449,
        -1
      ],
      "type": "VEC4"
    },
    {
      "bufferView": 1,
      "byteOffset": 2720,
      "componentType": 5126,
      "count": 414,
      "max": [
        0.98409998416900635,
        0.75690001249313354
      ],
      "min": [
        0.007799999788403511,
        0.11729999631643295
      ],
      "type": "VEC2"
    },
    {
      "bufferView": 0,
      "byteOffset": 6720,
      "componentType": 5125,
      "count": 1101,
      "max": [
        413
      ],
      "min": [
        0
      ],
      "type": "SCALAR"
    },
    {
      "bufferView": 2,
      "byteOffset": 18096,
      "componentType": 5126,
      "count": 3936,
      "max": [
        -497.130615234375,
        19.91670036315918,
        186.5166015625
      ],
      "min": [
        -656.97161865234375,
        -11.405599594116211,
        2.0009000301361084
      ],
      "type": "VEC3"
    },
    {
      "bufferView": 2,
      "byteOffset": 65328,
      "componentType": 5126,
      "count": 3936,
      "max": [
        0.99972623586654663,
        0.99957162141799927,
        0.99996590614318848
      ],
      "min": [
        -0.99972623586654663,
        -0.9999995231628418,
        -0.99982911348342896
      ],
      "type": "VEC3"
    },
    {
      "bufferView": 3,
      "byteOffset": 6624,
      "componentType": 5126,
      "count": 3936,
      "max": [
        1,
        0.99979859590530396,
        0.99704062938690186,
        1
      ],
      "min": [
        -0.99999552965164185,
        -0.99941450357437134,
        -0.98171371221542358,
        -1
      ],
      "type": "VEC4"
    },
    {
      "bufferView": 1,
      "byteOffset": 6032,
      "componentType": 5126,
      "count": 3936,
      "max": [
        0.98890000581741333,
        0.9901999831199646
      ],
      "min": [
        0.0099999997764825821,
        0.011099999770522118
      ],
      "type": "VEC2"
    },
    {
      "bufferView": 0,
      "byteOffset": 11124,
      "componentType": 5125,
      "count": 19932,
      "max": [
        3935
      ],
      "min": [
        0
      ],
      "type": "SCALAR"
    },
    {
      "bufferView": 2,
      "byteOffset": 112560,
      "componentType": 5126,
      "count": 2579,
      "max": [
        -569.16522216796875,
        1.3944000005722046,
        173.08299255371094
      ],
      "min": [
        -584.8519287109375,
        -10.034799575805664,
        159.29280090332031
      ],
      "type": "VEC3"
    },
    {
      "bufferView": 2,
      "byteOffset": 143508,
      "componentType": 5126,
      "count": 2579,
      "max": [
        0.99986875057220459,
        0.54780536890029907,
        0.78361016511917114
      ],
      "min": [
        -0.99953097105026245,
        -0.99939298629760742,
        -0.6564289927482605
      ],
      "type": "VEC3"
    },
    {
      "bufferView": 1,
      "byteOffset": 37520,
      "componentType": 5126,
      "count": 2579,
      "max": [
        0.36349999904632568,
        0.61809998750686646
      ],
      "min": [
        0.00139999995008111,
        0.011800000444054604
      ],
      "type": "VEC2"
    },
    {
      "bufferView": 0,
      "byteOffset": 90852,
      "componentType": 5125,
      "count": 6813,
      "max": [
        2578
      ],
      "min": [
        0
      ],
      "type": "SCALAR"
    },
    {
      "bufferView": 2,
      "byteOffset": 174456,
      "componentType": 5126,
      "count": 3304,
      "max": [
        -568.14801025390625,
        13.638500213623047,
        186.47979736328125
      ],
      "min": [
        -586.3001708984375,
        -6.2315001487731934,
        167.15620422363281
      ],
      "type": "VEC3"
    },
    {
      "bufferView": 2,
      "byteOffset": 214104,
      "componentType": 5126,
      "count": 3304,
      "max": [
        0.92184942960739136,
        0.99995076656341553,
        0.99808132648468018
      ],
      "min": [
        -0.99984127283096313,
        -0.85271668434143066,
        -0.53121095895767212
      ],
      "type": "VEC3"
    },
    {
      "bufferView": 1,
      "byteOffset": 58152,
      "componentType": 5126,
      "count": 3304,
      "max": [
        1,
        1
      ],
      "min": [
        0,
        0
      ],
      "type": "VEC2"
    },
    {
      "bufferView": 0,
      "byteOffset": 118104,
      "componentType": 5125,
      "count": 14832,
      "max": [
        3303
      ],
      "min": [
        0
      ],
      "type": "SCALAR"
    },
    {
      "bufferView": 2,
      "byteOffset": 253752,
      "componentType": 5126,
      "count": 3283,
      "max": [
        -567.72161865234375,
        14.105600357055664,
        189.90739440917969
      ],
      "min": [
        -585.96868896484375,
        -10.360400199890137,
        166.68290710449219
      ],
      "type": "VEC3"
    },
    {
      "bufferView": 2,
      "byteOffset": 293148,
      "componentType": 5126,
      "count": 3283,
      "max": [
        0.99946004152297974,
        0.99997568130493164,
        0.99919354915618896
      ],
      "min": [
        -0.99391788244247437,
        -0.99985826015472412,
        -0.49070936441421509
      ],
      "type": "VEC3"
    },
    {
      "bufferView": 1,
      "byteOffset": 84584,
      "componentType": 5126,
      "count": 3283,
      "max": [
        1,
        1
      ],
      "min": [
        0,
        0
      ],
      "type": "VEC2"
    },
    {
      "bufferView": 0,
      "byteOffset": 177432,
      "componentType": 5125,
      "count": 14940,
      "max": [
        3282
      ],
      "min": [
        0
      ],
      "type": "SCALAR"
    },
    {
      "bufferView": 2,
      "byteOffset": 332544,
      "componentType": 5126,
      "count": 3276,
      "max": [
        -569.5469970703125,
        9.732600212097168,
        190.33479309082031
      ],
      "min": [
        -586.4442138671875,
        -10.319600105285645,
        178.43490600585938
      ],
      "type": "VEC3"
    },
    {
      "bufferView": 2,
      "byteOffset": 371856,
      "componentType": 5126,
      "count": 3276,
      "max": [
        0.94283133745193481,
        0.99556934833526611,
        0.99527639150619507
      ],
      "min": [
        -0.99994206428527832,
        -0.99796324968338013,
        -0.778328537940979
      ],
      "type": "VEC3"
    },
    {
      "bufferView": 1,
      "byteOffset": 110848,
      "componentType": 5126,
      "count": 3276,
      "max": [
        1,
        1
      ],
      "min": [
        0,
        0
      ],
      "type": "VEC2"
    },
    {
      "bufferView": 0,
      "byteOffset": 237192,
      "componentType": 5125,
      "count": 14976,
      "max": [
        3275
      ],
      "min": [
        0
      ],
      "type": "SCALAR"
    },
    {
      "bufferView": 2,
      "byteOffset": 411168,
      "componentType": 5126,
      "count": 3276,
      "max": [
        -569.7869873046875,
        7.6163997650146484,
        189.2113037109375
      ],
      "min": [
        -586.2886962890625,
        -10.029999732971191,
        178.42889404296875
      ],
      "type": "VEC3"
    },
    {
      "bufferView": 2,
      "byteOffset": 450480,
      "componentType": 5126,
      "count": 3276,
      "max": [
        0.98289602994918823,
        0.91321450471878052,
        0.98673224449157715
      ],
      "min": [
        -0.99697226285934448,
        -0.99961251020431519,
        -0.69891911745071411
      ],
      "type": "VEC3"
    },
    {
      "bufferView": 1,
      "byteOffset": 137056,
      "componentType": 5126,
      "count": 3276,
      "max": [
        1,
        1
      ],
      "min": [
        0,
        0
      ],
      "type": "VEC2"
    },
    {
      "bufferView": 0,
      "byteOffset": 297096,
      "componentType": 5125,
      "count": 14976,
      "max": [
        3275
      ],
      "min": [
        0
      ],
      "type": "SCALAR"
    },
    {
      "bufferView": 2,
      "byteOffset": 489792,
      "componentType": 5126,
      "count": 3206,
      "max": [
        -568.310302734375,
        11.482600212097168,
        190.8179931640625
      ],
      "min": [
        -585.47918701171875,
        -9.2427997589111328,
        177.85580444335938
      ],
      "type": "VEC3"
    },
    {
      "bufferView": 2,
      "byteOffset": 528264,
      "componentType": 5126,
      "count": 3206,
      "max": [
        0.99989938735961914,
        0.88213551044464111,
        0.99786001443862915
      ],
      "min": [
        -0.99878257513046265,
        -0.99878615140914917,
        -0.65329742431640625
      ],
      "type": "VEC3"
    },
    {
      "bufferView": 1,
      "byteOffset": 163264,
      "componentType": 5126,
      "count": 3206,
      "max": [
        1,
        1
      ],
      "min": [
        0,
        0
      ],
      "type": "VEC2"
    },
    {
      "bufferView": 0,
      "byteOffset": 357000,
      "componentType": 5125,
      "count": 14688,
      "max": [
        3205
      ],
      "min": [
        0
      ],
      "type": "SCALAR"
    },
    {
      "bufferView": 2,
      "byteOffset": 566736,
      "componentType": 5126,
      "count": 2100,
      "max": [
        -567.70611572265625,
        9.75,
        188.93280029296875
      ],
      "min": [
        -585.4896240234375,
        -9.6757001876831055,
        177.45710754394531
      ],
      "type": "VEC3"
    },
    {
      "bufferView": 2,
      "byteOffset": 591936,
      "componentType": 5126,
      "count": 2100,
      "max": [
        0.99997520446777344,
        0.98182761669158936,
        0.99974864721298218
      ],
      "min": [
        -0.97566312551498413,
        -0.99953752756118774,
        -0.53928261995315552
      ],
      "type": "VEC3"
    },
    {
      "bufferView": 1,
      "byteOffset": 188912,
      "componentType": 5126,
      "count": 2100,
      "max": [
        1,
        1
      ],
      "min": [
        0,
        0
      ],
      "type": "VEC2"
    },
    {
      "bufferView": 0,
      "byteOffset": 415752,
      "componentType": 5125,
      "count": 9684,
      "max": [
        2099
      ],
      "min": [
        0
      ],
      "type": "SCALAR"
    }
  ],
  "asset": {
    "extras": {
      "author": "BlakkMato (https://sketchfab.com/BlakkMato)",
      "license": "CC-BY-4.0 (http://creativecommons.org/licenses/by/4.0/)",
      "source": "https://sketchfab.com/3d-models/man-base-mesh-a870a28384fb428da535b6a816fea73e",
      "title": "Man base mesh"
    },
    "generator": "Sketchfab-7.61.0",
    "version": "2.0"
  },
  "bufferViews": [
    {
      "buffer": 0,
      "byteLength": 454488,
      "byteOffset": 0,
      "name": "floatBufferViews",
      "target": 34963
    },
    {
      "buffer": 0,
      "byteLength": 205712,
      "byteOffset": 454488,
      "byteStride": 8,
      "name": "floatBufferViews",
      "target": 34962
    },
    {
      "buffer": 0,
      "byteLength": 617136,
      "byteOffset": 660200,
      "byteStride": 12,
      "name": "floatBufferViews",
      "target": 34962
    },
    {
      "buffer": 0,
      "byteLength": 69600,
      "byteOffset": 1277336,
      "byteStride": 16,
      "name": "floatBufferViews",
      "target": 34962
    }
  ],
  "buffers": [
    {
      "byteLength": 1346936,
      "uri": "scene.bin"
    }
  ],
  "images": [
    {
      "uri": "textures/Material__172_baseColor.png"
    },
    {
      "uri": "textures/Material__172_metallicRoughness.png"
    },
    {
      "uri": "textures/Material__172_normal.png"
    },
    {
      "uri": "textures/Material__26_baseColor.png"
    },
    {
      "uri": "textures/Material__40_baseColor.png"
    }
  ],
  "materials": [
    {
      "doubleSided": true,
      "emissiveFactor": [
        0,
        0,
        0
      ],
      "name": "Material__172",
      "normalTexture": {
        "index": 2,
        "scale": 0.64805640239999995,
        "texCoord": 0
      },
      "pbrMetallicRoughness": {
        "baseColorFactor": [
          1,
          1,
          1,
          1
        ],
        "baseColorTexture": {
          "index": 0,
          "texCoord": 0
        },
        "metallicFactor": 0.70903201220000001,
        "metallicRoughnessTexture": {
          "index": 1,
          "texCoord": 0
        },
        "roughnessFactor": 1
      }
    },
    {
      "alphaMode": "BLEND",
      "doubleSided": true,
      "emissiveFactor": [
        0,
        0,
        0
      ],
      "name": "Material__26",
      "pbrMetallicRoughness": {
        "baseColorFactor": [
          1,
          1,
          1,
          1
        ],
        "baseColorTexture": {
          "index": 3,
          "texCoord": 0
        },
        "metallicFactor": 0,
        "roughnessFactor": 0.56535823169999999
      }
    },
    {
      "alphaMode": "BLEND",
      "doubleSided": true,
      "emissiveFactor": [
        0,
        0,
        0
      ],
      "name": "Material__40",
      "pbrMetallicRoughness": {
        "baseColorFactor": [
          1,
          1,
          1,
          1
        ],
        "baseColorTexture": {
          "index": 4,
          "texCoord": 0
        },
        "metallicFactor": 0,
        "roughnessFactor": 0.77877286589999994
      }
    },
    {
      "doubleSided": true,
      "emissiveFactor": [
        0,
        0,
        0
      ],
      "name": "pant",
      "pbrMetallicRoughness": {
        "baseColorFactor": [
          0,
          0,
          0,
          1
        ],
        "metallicFactor": 0,
        "roughnessFactor": 1
      }
    }
  ],
  "meshes": [
    {
      "primitives": [
        {
          "attributes": {
            "NORMAL": 1,
            "POSITION": 0,
            "TEXCOORD_0": 2
          },
          "indices": 3,
          "material": 3,
          "mode": 4
        }
      ]
    },
    {
      "primitives": [
        {
          "attributes": {
            "NORMAL": 5,
            "POSITION": 4,
            "TANGENT": 6,
            "TEXCOORD_0": 7
          },
          "indices": 8,
          "material": 0,
          "mode": 4
        }
      ]
    },
    {
      "primitives": [
        {
          "attributes": {
            "NORMAL": 10,
            "POSITION": 9,
            "TANGENT": 11,
            "TEXCOORD_0": 12
          },
          "indices": 13,
          "material": 0,
          "mode": 4
        }
      ]
    },
    {
      "primitives": [
        {
          "attributes": {
            "NORMAL": 15,
            "POSITION": 14,
            "TEXCOORD_0": 16
          },
          "indices": 17,
          "material": 1,
          "mode": 4
        }
      ]
    },
    {
      "primitives": [
        {
          "attributes": {
            "NORMAL": 19,
            "POSITION": 18,
            "TEXCOORD_0": 20
          },
          "indices": 21,
          "material": 2,
          "mode": 4
        }
      ]
    },
    {
      "primitives": [
        {
          "attributes": {
            "NORMAL": 23,
            "POSITION": 22,
            "TEXCOORD_0": 24
          },
          "indices": 25,
          "material": 2,
          "mode": 4
        }
      ]
    },
    {
      "primitives": [
        {
          "attributes": {
            "NORMAL": 27,
            "POSITION": 26,
            "TEXCOORD_0": 28
          },
          "indices": 29,
          "material": 2,
          "mode": 4
        }
      ]
    },
    {
      "primitives": [
        {
          "attributes": {
            "NORMAL": 31,
            "POSITION": 30,
            "TEXCOORD_0": 32
          },
          "indices": 33,
          "material": 2,
          "mode": 4
        }
      ]
    },
    {
      "primitives": [
        {
          "attributes": {
            "NORMAL": 35,
            "POSITION": 34,
            "TEXCOORD_0": 36
          },
          "indices": 37,
          "material": 2,
          "mode": 4
        }
      ]
    },
    {
      "primitives": [
        {
          "attributes": {
            "NORMAL": 39,
            "POSITION": 38,
            "TEXCOORD_0": 40
          },
          "indices": 41,
          "material": 2,
          "mode": 4
        }
      ]
    }
  ],
  "nodes": [
    {
      "children": [
        1
      ],
      "name": "RootNode (gltf orientation matrix)",
      "rotation": [
        -0.70710678118654746,
        -0,
        -0,
        0.70710678118654757
      ]
    },
    {
      "children": [
        2
      ],
      "name": "RootNode (model correction matrix)"
    },
    {
      "children": [
        3,
        4,
        5,
        6,
        7,
        8,
        9,
        10,
        11,
        12
      ],
      "name": "Man_test_4.obj.cleaner.materialmerger.gles"
    },
    {
      "mesh": 0,
      "name": ""
    },
    {
      "mesh": 1,
      "name": ""
    },
    {
      "mesh": 2,
      "name": ""
    },
    {
      "mesh": 3,
      "name": ""
    },
    {
      "mesh": 4,
      "name": ""
    },
    {
      "mesh": 5,
      "name": ""
    },
    {
      "mesh": 6,
      "name": ""
    },
    {
      "mesh": 7,
      "name": ""
    },
    {
      "mesh": 8,
      "name": ""
    },
    {
      "mesh": 9,
      "name": ""
    }
  ],
  "samplers": [
    {
      "magFilter": 9729,
      "minFilter": 9987,
      "wrapS": 10497,
      "wrapT": 10497
    }
  ],
  "scene": 0,
  "scenes": [
    {
      "name": "OSG_Scene",
      "nodes": [
        0
      ]
    }
  ],
  "textures": [
    {
      "sampler": 0,
      "source": 0
    },
    {
      "sampler": 0,
      "source": 1
    },
    {
      "sampler": 0,
      "source": 2
    },
    {
      "sampler": 0,
      "source": 3
    },
    {
      "sampler": 0,
      "source": 4
    }
  ]
}

