{
  "accessors": [
    {
      "bufferView": 2,
      "componentType": 5126,
      "count": 8054,
      "max": [
        71.841026306152344,
        18.515085220336914,
        182.36662292480469
      ],
      "min": [
        -71.841026306152344,
        -13.733646392822266,
        -0.34850099682807922
      ],
      "type": "VEC3"
    },
    {
      "bufferView": 2,
      "byteOffset": 96648,
      "componentType": 5126,
      "count": 8054,
      "max": [
        0.99994814395904541,
        0.99999797344207764,
        0.9999847412109375
      ],
      "min": [
        -0.99994814395904541,
        -0.99995923042297363,
        -0.99999511241912842
      ],
      "type": "VEC3"
    },
    {
      "bufferView": 1,
      "componentType": 5126,
      "count": 8054,
      "max": [
        0.86716997623443604,
        0.99804002046585083
      ],
      "min": [
        0.0019499999471008778,
        0.0019499999471008778
      ],
      "type": "VEC2"
    },
    {
      "bufferView": 0,
      "componentType": 5125,
      "count": 44880,
      "max": [
        8053
      ],
      "min": [
        0
      ],
      "type": "SCALAR"
    }
  ],
  "asset": {
    "extras": {
      "author": "Fernando H. C. Menezes (https://sketchfab.com/fhcgyn)",
      "license": "CC-BY-SA-4.0 (http://creativecommons.org/licenses/by-sa/4.0/)",
      "source": "https://sketchfab.com/3d-models/clean-man-body-t-pose-050d1b164d994259862cbdb4b9ffb75e",
      "title": "Clean Man Body T-Pose"
    },
    "generator": "Sketchfab-7.81.0",
    "version": "2.0"
  },
  "bufferViews": [
    {
      "buffer": 0,
      "byteLength": 179520,
      "byteOffset": 0,
      "name": "floatBufferViews",
      "target": 34963
    },
    {
      "buffer": 0,
      "byteLength": 64432,
      "byteOffset": 179520,
      "byteStride": 8,
      "name": "floatBufferViews",
      "target": 34962
    },
    {
      "buffer": 0,
      "byteLength": 193296,
      "byteOffset": 243952,
      "byteStride": 12,
      "name": "floatBufferViews",
      "target": 34962
    }
  ],
  "buffers": [
    {
      "byteLength": 437248,
      "uri": "scene.bin"
    }
  ],
  "materials": [
    {
      "doubleSided": true,
      "emissiveFactor": [
        0,
        0,
        0
      ],
      "name": "CleanNickzdefaultMat",
      "pbrMetallicRoughness": {
        "baseColorFactor": [
          0.22886070889999999,
          0.22886070889999999,
          0.22886070889999999,
          1
        ],
        "metallicFactor": 0,
        "roughnessFactor": 0.54444019970000002
      }
    }
  ],
  "meshes": [
    {
      "primitives": [
        {
          "attributes": {
            "NORMAL": 1,
            "POSITION": 0,
            "TEXCOORD_0": 2
          },
          "indices": 3,
          "material": 0,
          "mode": 4
        }
      ]
    }
  ],
  "nodes": [
    {
      "children": [
        1
      ],
      "name": "RootNode (gltf orientation matrix)",
      "rotation": [
        -0.70710678118654746,
        -0,
        -0,
        0.70710678118654757
      ]
    },
    {
      "children": [
        2
      ],
      "name": "RootNode (model correction matrix)"
    },
    {
      "children": [
        3
      ],
      "name": "CleanNickzSmth.OBJ.cleaner.materialmerger.gles"
    },
    {
      "mesh": 0,
      "name": ""
    }
  ],
  "scene": 0,
  "scenes": [
    {
      "name": "OSG_Scene",
      "nodes": [
        0
      ]
    }
  ]
}

