{
  "accessors": [
    {
      "bufferView": 2,
      "componentType": 5126,
      "count": 8312,
      "max": [
        1.3658000230789185,
        1.7445299625396729,
        0.24180500209331512
      ],
      "min": [
        -1.4194929599761963,
        -0.075808003544807434,
        -0.40856298804283142
      ],
      "type": "VEC3"
    },
    {
      "bufferView": 2,
      "byteOffset": 99744,
      "componentType": 5126,
      "count": 8312,
      "max": [
        0.99917310476303101,
        0.99938297271728516,
        0.99998623132705688
      ],
      "min": [
        -0.99995237588882446,
        -0.99959760904312134,
        -0.999947190284729
      ],
      "type": "VEC3"
    },
    {
      "bufferView": 1,
      "componentType": 5126,
      "count": 8312,
      "max": [
        1.0691219568252563,
        3.2942459583282471
      ],
      "min": [
        -0.25029700994491577,
        -2.950153112411499
      ],
      "type": "VEC2"
    },
    {
      "bufferView": 0,
      "componentType": 5125,
      "count": 11460,
      "max": [
        8311
      ],
      "min": [
        0
      ],
      "type": "SCALAR"
    },
    {
      "bufferView": 2,
      "byteOffset": 199488,
      "componentType": 5126,
      "count": 1522,
      "max": [
        0.56696200370788574,
        1.6884050369262695,
        0.20718500018119812
      ],
      "min": [
        -0.5674470067024231,
        0.082179002463817596,
        -0.12210500240325928
      ],
      "type": "VEC3"
    },
    {
      "bufferView": 2,
      "byteOffset": 217752,
      "componentType": 5126,
      "count": 1522,
      "max": [
        0.9999498724937439,
        0.99476033449172974,
        0.99964231252670288
      ],
      "min": [
        -0.99968940019607544,
        -0.99843603372573853,
        -0.99994844198226929
      ],
      "type": "VEC3"
    },
    {
      "bufferView": 1,
      "byteOffset": 66496,
      "componentType": 5126,
      "count": 1522,
      "max": [
        1,
        1
      ],
      "min": [
        0,
        -0.52570998668670654
      ],
      "type": "VEC2"
    },
    {
      "bufferView": 0,
      "byteOffset": 45840,
      "componentType": 5125,
      "count": 2148,
      "max": [
        1521
      ],
      "min": [
        0
      ],
      "type": "SCALAR"
    },
    {
      "bufferView": 2,
      "byteOffset": 236016,
      "componentType": 5126,
      "count": 316,
      "max": [
        0.48723599314689636,
        1.2577430009841919,
        0.00054400000954046845
      ],
      "min": [
        -0.48398000001907349,
        1.15944504737854,
        -0.0923599973320961
      ],
      "type": "VEC3"
    },
    {
      "bufferView": 2,
      "byteOffset": 239808,
      "componentType": 5126,
      "count": 316,
      "max": [
        0.86281794309616089,
        0.98245465755462646,
        0.99644684791564941
      ],
      "min": [
        -0.85848367214202881,
        -0.97340774536132812,
        -0.98846513032913208
      ],
      "type": "VEC3"
    },
    {
      "bufferView": 1,
      "byteOffset": 78672,
      "componentType": 5126,
      "count": 316,
      "max": [
        0.5,
        1
      ],
      "min": [
        0,
        0
      ],
      "type": "VEC2"
    },
    {
      "bufferView": 0,
      "byteOffset": 54432,
      "componentType": 5125,
      "count": 468,
      "max": [
        315
      ],
      "min": [
        0
      ],
      "type": "SCALAR"
    },
    {
      "bufferView": 2,
      "byteOffset": 243600,
      "componentType": 5126,
      "count": 1421,
      "max": [
        0.65619897842407227,
        1.691504955291748,
        0.040383998304605484
      ],
      "min": [
        -0.65644299983978271,
        1.1450079679489136,
        -0.10989800095558167
      ],
      "type": "VEC3"
    },
    {
      "bufferView": 2,
      "byteOffset": 260652,
      "componentType": 5126,
      "count": 1421,
      "max": [
        0.99883788824081421,
        0.99971020221710205,
        0.99481743574142456
      ],
      "min": [
        -0.99820798635482788,
        -0.99949109554290771,
        -0.99393618106842041
      ],
      "type": "VEC3"
    },
    {
      "bufferView": 1,
      "byteOffset": 81200,
      "componentType": 5126,
      "count": 1421,
      "max": [
        0.99504899978637695,
        1
      ],
      "min": [
        0,
        0
      ],
      "type": "VEC2"
    },
    {
      "bufferView": 0,
      "byteOffset": 56304,
      "componentType": 5125,
      "count": 2037,
      "max": [
        1420
      ],
      "min": [
        0
      ],
      "type": "SCALAR"
    },
    {
      "bufferView": 2,
      "byteOffset": 277704,
      "componentType": 5126,
      "count": 88,
      "max": [
        0.013504000380635262,
        1.6097840070724487,
        0.035386998206377029
      ],
      "min": [
        -0.036819998174905777,
        1.5902559757232666,
        0.014670999720692635
      ],
      "type": "VEC3"
    },
    {
      "bufferView": 2,
      "byteOffset": 278760,
      "componentType": 5126,
      "count": 88,
      "max": [
        0.83886867761611938,
        0.74947923421859741,
        0.97922933101654053
      ],
      "min": [
        -0.83782124519348145,
        -0.75862491130828857,
        0.36723983287811279
      ],
      "type": "VEC3"
    },
    {
      "bufferView": 1,
      "byteOffset": 92568,
      "componentType": 5126,
      "count": 88,
      "max": [
        0.74752497673034668,
        0.0049499999731779099
      ],
      "min": [
        0.5,
        0.0049499999731779099
      ],
      "type": "VEC2"
    },
    {
      "bufferView": 0,
      "byteOffset": 64452,
      "componentType": 5125,
      "count": 120,
      "max": [
        87
      ],
      "min": [
        0
      ],
      "type": "SCALAR"
    },
    {
      "bufferView": 2,
      "byteOffset": 279816,
      "componentType": 5126,
      "count": 811,
      "max": [
        0.08835899829864502,
        1.6806440353393555,
        0.0067400000989437103
      ],
      "min": [
        -0.12765200436115265,
        1.3447649478912354,
        -0.23911899328231812
      ],
      "type": "VEC3"
    },
    {
      "bufferView": 2,
      "byteOffset": 289548,
      "componentType": 5126,
      "count": 811,
      "max": [
        0.99960273504257202,
        0.9998360276222229,
        0.98470157384872437
      ],
      "min": [
        -0.99087244272232056,
        -0.99812608957290649,
        -0.99676054716110229
      ],
      "type": "VEC3"
    },
    {
      "bufferView": 1,
      "byteOffset": 93272,
      "componentType": 5126,
      "count": 811,
      "max": [
        0.93316799402236938,
        0.0049499999731779099
      ],
      "min": [
        0,
        0
      ],
      "type": "VEC2"
    },
    {
      "bufferView": 0,
      "byteOffset": 64932,
      "componentType": 5125,
      "count": 1107,
      "max": [
        810
      ],
      "min": [
        0
      ],
      "type": "SCALAR"
    },
    {
      "bufferView": 2,
      "byteOffset": 299280,
      "componentType": 5126,
      "count": 36,
      "max": [
        0.031656999140977859,
        1.6593619585037231,
        -0.0054069999605417252
      ],
      "min": [
        -0.054335001856088638,
        1.6523560285568237,
        -0.016220999881625175
      ],
      "type": "VEC3"
    },
    {
      "bufferView": 2,
      "byteOffset": 299712,
      "componentType": 5126,
      "count": 36,
      "max": [
        0.97804588079452515,
        0.88224327564239502,
        0.97803044319152832
      ],
      "min": [
        -0.95116382837295532,
        -0.14136821031570435,
        0.15310576558113098
      ],
      "type": "VEC3"
    },
    {
      "bufferView": 1,
      "byteOffset": 99760,
      "componentType": 5126,
      "count": 36,
      "max": [
        0.93316799402236938,
        0.0049499999731779099
      ],
      "min": [
        0.68564397096633911,
        0.0049499999731779099
      ],
      "type": "VEC2"
    },
    {
      "bufferView": 0,
      "byteOffset": 69360,
      "componentType": 5125,
      "count": 48,
      "max": [
        35
      ],
      "min": [
        0
      ],
      "type": "SCALAR"
    },
    {
      "bufferView": 2,
      "byteOffset": 300144,
      "componentType": 5126,
      "count": 88,
      "max": [
        0.023622000589966774,
        1.6611130237579346,
        -0.0049430001527070999
      ],
      "min": [
        -0.046937998384237289,
        1.6511499881744385,
        -0.01181699987500906
      ],
      "type": "VEC3"
    },
    {
      "bufferView": 2,
      "byteOffset": 301200,
      "componentType": 5126,
      "count": 88,
      "max": [
        0.90832185745239258,
        0.96850961446762085,
        0.9030643105506897
      ],
      "min": [
        -0.91224908828735352,
        -0.55703717470169067,
        -0.093905992805957794
      ],
      "type": "VEC3"
    },
    {
      "bufferView": 1,
      "byteOffset": 100048,
      "componentType": 5126,
      "count": 88,
      "max": [
        0.99504899978637695,
        0.0049499999731779099
      ],
      "min": [
        0.0049499999731779099,
        0.0049499999731779099
      ],
      "type": "VEC2"
    },
    {
      "bufferView": 0,
      "byteOffset": 69552,
      "componentType": 5125,
      "count": 132,
      "max": [
        87
      ],
      "min": [
        0
      ],
      "type": "SCALAR"
    }
  ],
  "asset": {
    "extras": {
      "author": "DavidA3D (https://sketchfab.com/DavidA3D)",
      "license": "CC-BY-NC-4.0 (http://creativecommons.org/licenses/by-nc/4.0/)",
      "source": "https://sketchfab.com/3d-models/golden-warrior-wonder-woman-gal-gadot-0e27b38608b449889fd15d48785d5d92",
      "title": "Golden Warrior Wonder Woman (Gal Gadot)"
    },
    "generator": "Sketchfab-9.45.0",
    "version": "2.0"
  },
  "bufferViews": [
    {
      "buffer": 0,
      "byteLength": 70080,
      "byteOffset": 0,
      "name": "floatBufferViews",
      "target": 34963
    },
    {
      "buffer": 0,
      "byteLength": 100752,
      "byteOffset": 70080,
      "byteStride": 8,
      "name": "floatBufferViews",
      "target": 34962
    },
    {
      "buffer": 0,
      "byteLength": 302256,
      "byteOffset": 170832,
      "byteStride": 12,
      "name": "floatBufferViews",
      "target": 34962
    }
  ],
  "buffers": [
    {
      "byteLength": 473088,
      "uri": "scene.bin"
    }
  ],
  "materials": [
    {
      "doubleSided": true,
      "emissiveFactor": [
        0,
        0,
        0
      ],
      "name": "Gold",
      "pbrMetallicRoughness": {
        "baseColorFactor": [
          0.61960800000000005,
          0.56470600000000004,
          0.35686299999999999,
          1
        ],
        "metallicFactor": 1,
        "roughnessFactor": 0.44556268962540052
      }
    },
    {
      "doubleSided": true,
      "emissiveFactor": [
        0,
        0,
        0
      ],
      "name": "Gold2",
      "pbrMetallicRoughness": {
        "baseColorFactor": [
          0.30026978286695144,
          0.25692062781292213,
          0.18104640107096109,
          1
        ],
        "metallicFactor": 1,
        "roughnessFactor": 0.64012823085201465
      }
    },
    {
      "doubleSided": true,
      "emissiveFactor": [
        0,
        0,
        0
      ],
      "name": "Silver",
      "pbrMetallicRoughness": {
        "baseColorFactor": [
          0.60392199999999996,
          0.60392199999999996,
          0.60392199999999996,
          1
        ],
        "metallicFactor": 1,
        "roughnessFactor": 0.42732217013540547
      }
    },
    {
      "doubleSided": true,
      "emissiveFactor": [
        0,
        0,
        0
      ],
      "name": "Skin",
      "pbrMetallicRoughness": {
        "baseColorFactor": [
          0.80000000000000004,
          0.69411800000000001,
          0.611765,
          1
        ],
        "metallicFactor": 0,
        "roughnessFactor": 0.86225814857224969
      }
    },
    {
      "doubleSided": true,
      "emissiveFactor": [
        0,
        0,
        0
      ],
      "name": "Lips",
      "pbrMetallicRoughness": {
        "baseColorFactor": [
          0.54117599999999999,
          0.258824,
          0.26666699999999999,
          1
        ],
        "metallicFactor": 0.36652043850208854,
        "roughnessFactor": 0.37260061166542024
      }
    },
    {
      "doubleSided": true,
      "emissiveFactor": [
        0,
        0,
        0
      ],
      "name": "Hair",
      "pbrMetallicRoughness": {
        "baseColorFactor": [
          0.066007879904419683,
          0.051770970327234919,
          0.045299557781405611,
          1
        ],
        "metallicFactor": 0,
        "roughnessFactor": 0.96809430998109525
      }
    },
    {
      "doubleSided": true,
      "emissiveFactor": [
        0,
        0,
        0
      ],
      "name": "EyeWhites",
      "pbrMetallicRoughness": {
        "baseColorFactor": [
          0.80000000000000004,
          0.80000000000000004,
          0.80000000000000004,
          1
        ],
        "metallicFactor": 0,
        "roughnessFactor": 0.84494698896836617
      }
    },
    {
      "doubleSided": true,
      "emissiveFactor": [
        0,
        0,
        0
      ],
      "name": "Black",
      "pbrMetallicRoughness": {
        "baseColorFactor": [
          0.058823500000000001,
          0.054901999999999999,
          0.047058799999999998,
          1
        ],
        "metallicFactor": 0.5306851139120442,
        "roughnessFactor": 0.010692733158496935
      }
    }
  ],
  "meshes": [
    {
      "name": "WonderWomanGolden.obj_Gold_0",
      "primitives": [
        {
          "attributes": {
            "NORMAL": 1,
            "POSITION": 0,
            "TEXCOORD_0": 2
          },
          "indices": 3,
          "material": 0,
          "mode": 4
        }
      ]
    },
    {
      "name": "WonderWomanGolden.obj_Gold2_0",
      "primitives": [
        {
          "attributes": {
            "NORMAL": 5,
            "POSITION": 4,
            "TEXCOORD_0": 6
          },
          "indices": 7,
          "material": 1,
          "mode": 4
        }
      ]
    },
    {
      "name": "WonderWomanGolden.obj_Silver_0",
      "primitives": [
        {
          "attributes": {
            "NORMAL": 9,
            "POSITION": 8,
            "TEXCOORD_0": 10
          },
          "indices": 11,
          "material": 2,
          "mode": 4
        }
      ]
    },
    {
      "name": "WonderWomanGolden.obj_Skin_0",
      "primitives": [
        {
          "attributes": {
            "NORMAL": 13,
            "POSITION": 12,
            "TEXCOORD_0": 14
          },
          "indices": 15,
          "material": 3,
          "mode": 4
        }
      ]
    },
    {
      "name": "WonderWomanGolden.obj_Lips_0",
      "primitives": [
        {
          "attributes": {
            "NORMAL": 17,
            "POSITION": 16,
            "TEXCOORD_0": 18
          },
          "indices": 19,
          "material": 4,
          "mode": 4
        }
      ]
    },
    {
      "name": "WonderWomanGolden.obj_Hair_0",
      "primitives": [
        {
          "attributes": {
            "NORMAL": 21,
            "POSITION": 20,
            "TEXCOORD_0": 22
          },
          "indices": 23,
          "material": 5,
          "mode": 4
        }
      ]
    },
    {
      "name": "WonderWomanGolden.obj_EyeWhites_0",
      "primitives": [
        {
          "attributes": {
            "NORMAL": 25,
            "POSITION": 24,
            "TEXCOORD_0": 26
          },
          "indices": 27,
          "material": 6,
          "mode": 4
        }
      ]
    },
    {
      "name": "WonderWomanGolden.obj_Black_0",
      "primitives": [
        {
          "attributes": {
            "NORMAL": 29,
            "POSITION": 28,
            "TEXCOORD_0": 30
          },
          "indices": 31,
          "material": 7,
          "mode": 4
        }
      ]
    }
  ],
  "nodes": [
    {
      "children": [
        1
      ],
      "name": "RootNode (gltf orientation matrix)",
      "rotation": [
        -0.70710678118654746,
        -0,
        -0,
        0.70710678118654757
      ]
    },
    {
      "children": [
        2
      ],
      "name": "RootNode (model correction matrix)"
    },
    {
      "children": [
        3
      ],
      "matrix": [
        1,
        0,
        0,
        0,
        0,
        0,
        1,
        0,
        0,
        -1,
        0,
        0,
        0,
        0,
        0,
        1
      ],
      "name": "ca1b5e184fa14f89a4243c799fe85a04.fbx"
    },
    {
      "children": [
        4
      ],
      "name": "RootNode"
    },
    {
      "children": [
        5,
        6,
        7,
        8,
        9,
        10,
        11,
        12
      ],
      "matrix": [
        100,
        0,
        0,
        0,
        0,
        99.999999999998664,
        1.6292067073209114e-05,
        0,
        0,
        -1.6292067073209114e-05,
        99.999999999998664,
        0,
        0,
        0,
        0,
        1
      ],
      "name": "WonderWomanGolden.obj"
    },
    {
      "mesh": 0,
      "name": "WonderWomanGolden.obj_Gold_0"
    },
    {
      "mesh": 1,
      "name": "WonderWomanGolden.obj_Gold2_0"
    },
    {
      "mesh": 2,
      "name": "WonderWomanGolden.obj_Silver_0"
    },
    {
      "mesh": 3,
      "name": "WonderWomanGolden.obj_Skin_0"
    },
    {
      "mesh": 4,
      "name": "WonderWomanGolden.obj_Lips_0"
    },
    {
      "mesh": 5,
      "name": "WonderWomanGolden.obj_Hair_0"
    },
    {
      "mesh": 6,
      "name": "WonderWomanGolden.obj_EyeWhites_0"
    },
    {
      "mesh": 7,
      "name": "WonderWomanGolden.obj_Black_0"
    }
  ],
  "scene": 0,
  "scenes": [
    {
      "name": "OSG_Scene",
      "nodes": [
        0
      ]
    }
  ]
}

